<svg version="1.1" id="Layer_1" xmlns="http://www.w3.org/2000/svg" xmlns:xlink="http://www.w3.org/1999/xlink" x="0px" y="0px"
	 width="100%" viewBox="0 0 285 217" enable-background="new 0 0 285 217" xml:space="preserve">
<path fill="#020202" opacity="1.000000" stroke="none" 
	d="
M199.000000,218.000000 
	C132.666672,218.000000 66.833351,218.000000 1.000018,218.000000 
	C1.000012,145.666687 1.000012,73.333366 1.000006,1.000037 
	C95.999969,1.000025 190.999939,1.000025 285.999939,1.000012 
	C285.999939,73.333298 285.999939,145.666595 285.999969,217.999939 
	C257.166656,218.000000 228.333328,218.000000 199.000000,218.000000 
M170.462814,20.100113 
	C163.196136,10.891038 153.732330,7.440499 142.020462,7.485555 
	C127.827705,7.540155 113.327950,18.785225 111.404434,33.954144 
	C110.060936,44.549038 111.145409,55.451817 111.145409,66.368057 
	C120.059921,66.368057 128.821289,66.368057 138.039062,66.368057 
	C138.039062,59.342064 138.054916,52.552094 138.033157,45.762241 
	C138.020004,41.658943 139.663315,38.982944 144.072861,38.809963 
	C148.266037,38.645462 150.227661,40.891830 150.254913,45.924591 
	C150.302750,54.757183 150.259521,63.590240 150.268051,72.423088 
	C150.284210,89.175056 159.847397,99.774300 176.864090,101.717010 
	C176.947174,100.567917 177.098846,99.427338 177.101807,98.286354 
	C177.151245,79.287468 177.120972,60.288136 177.247116,41.289814 
	C177.297516,33.699940 175.334946,26.833063 170.462814,20.100113 
M137.478699,148.518890 
	C137.475571,145.353745 137.480865,142.188583 137.467896,139.023468 
	C137.400482,122.582420 127.699059,111.892731 111.183525,110.135933 
	C111.046326,110.584106 110.781143,111.046906 110.780647,111.509979 
	C110.758331,132.332397 110.400818,153.162979 110.874481,173.974579 
	C111.232841,189.720367 124.039894,202.808014 139.820511,204.843369 
	C155.337509,206.844696 171.946564,197.227310 175.271179,181.959381 
	C177.831833,170.199829 177.116165,157.726852 177.858536,145.551270 
	C167.655243,145.551270 158.902832,145.551270 149.836029,145.551270 
	C149.836029,152.485931 149.833206,159.132462 149.837067,165.778976 
	C149.839493,169.962906 148.422531,173.020950 143.676575,173.180252 
	C139.488083,173.320816 137.559631,171.088760 137.492157,166.005051 
	C137.419205,160.508682 137.477570,155.010559 137.478699,148.518890 
M137.192139,73.839401 
	C117.197624,73.842407 97.201355,73.683495 77.209137,73.899536 
	C61.147808,74.073097 47.957581,85.483589 45.275875,100.980141 
	C42.790947,115.339584 51.884373,130.611420 66.402725,135.647308 
	C78.833519,139.959106 91.669235,136.937820 104.311462,137.861008 
	C104.311462,128.196121 104.311462,119.438179 104.311462,110.257874 
	C97.238541,110.257874 90.445152,110.265228 83.651794,110.254921 
	C79.987671,110.249367 76.828156,109.410110 76.778152,104.912186 
	C76.728065,100.406181 79.708710,99.540665 83.503998,99.570297 
	C93.167427,99.645729 102.832802,99.677071 112.495667,99.569649 
	C126.480293,99.414192 137.055542,90.560013 139.508972,76.937042 
	C139.674179,76.019753 138.606018,74.880341 137.192139,73.839401 
M163.506744,138.154922 
	C179.005539,138.153519 194.507584,137.951035 210.002350,138.200165 
	C230.687927,138.532715 243.976456,125.229515 244.413727,104.776543 
	C244.751038,88.998901 231.136139,75.449348 216.995544,74.182404 
	C206.628464,73.253555 196.111252,74.000397 185.446808,74.000397 
	C185.446808,83.217545 185.446808,92.116631 185.446808,101.375275 
	C192.687439,101.375275 199.668030,101.270401 206.643295,101.418022 
	C210.316467,101.495750 213.304459,102.825592 213.053391,107.298210 
	C212.818512,111.482460 210.044266,112.279366 206.441818,112.245667 
	C196.443497,112.152138 186.441803,112.092278 176.444946,112.245888 
	C162.147171,112.465569 151.010529,123.339310 150.074493,138.154922 
	C154.230743,138.154922 158.370056,138.154922 163.506744,138.154922 
M153.212585,114.701317 
	C157.671249,111.781532 162.129929,108.861755 166.433868,106.043297 
	C155.725006,102.498238 148.074768,95.104164 144.181885,82.821640 
	C140.247665,95.046783 132.577164,102.541985 120.629799,106.469170 
	C132.636978,110.260193 140.145981,117.865242 143.749863,128.589951 
	C146.758774,124.094193 149.732651,119.650772 153.212585,114.701317 
z"/>
<path fill="#FBFBFB" opacity="1.000000" stroke="none" 
	d="
M170.677643,20.389677 
	C175.334946,26.833063 177.297516,33.699940 177.247116,41.289814 
	C177.120972,60.288136 177.151245,79.287468 177.101807,98.286354 
	C177.098846,99.427338 176.947174,100.567917 176.864090,101.717010 
	C159.847397,99.774300 150.284210,89.175056 150.268051,72.423088 
	C150.259521,63.590240 150.302750,54.757183 150.254913,45.924591 
	C150.227661,40.891830 148.266037,38.645462 144.072861,38.809963 
	C139.663315,38.982944 138.020004,41.658943 138.033157,45.762241 
	C138.054916,52.552094 138.039062,59.342064 138.039062,66.368057 
	C128.821289,66.368057 120.059921,66.368057 111.145409,66.368057 
	C111.145409,55.451817 110.060936,44.549038 111.404434,33.954144 
	C113.327950,18.785225 127.827705,7.540155 142.020462,7.485555 
	C153.732330,7.440499 163.196136,10.891038 170.677643,20.389677 
z"/>
<path fill="#FCFCFC" opacity="1.000000" stroke="none" 
	d="
M137.478668,149.016052 
	C137.477570,155.010559 137.419205,160.508682 137.492157,166.005051 
	C137.559631,171.088760 139.488083,173.320816 143.676575,173.180252 
	C148.422531,173.020950 149.839493,169.962906 149.837067,165.778976 
	C149.833206,159.132462 149.836029,152.485931 149.836029,145.551270 
	C158.902832,145.551270 167.655243,145.551270 177.858536,145.551270 
	C177.116165,157.726852 177.831833,170.199829 175.271179,181.959381 
	C171.946564,197.227310 155.337509,206.844696 139.820511,204.843369 
	C124.039894,202.808014 111.232841,189.720367 110.874481,173.974579 
	C110.400818,153.162979 110.758331,132.332397 110.780647,111.509979 
	C110.781143,111.046906 111.046326,110.584106 111.183525,110.135933 
	C127.699059,111.892731 137.400482,122.582420 137.467896,139.023468 
	C137.480865,142.188583 137.475571,145.353745 137.478668,149.016052 
z"/>
<path fill="#FAFAFA" opacity="1.000000" stroke="none" 
	d="
M137.651810,73.841820 
	C138.606018,74.880341 139.674179,76.019753 139.508972,76.937042 
	C137.055542,90.560013 126.480293,99.414192 112.495667,99.569649 
	C102.832802,99.677071 93.167427,99.645729 83.503998,99.570297 
	C79.708710,99.540665 76.728065,100.406181 76.778152,104.912186 
	C76.828156,109.410110 79.987671,110.249367 83.651794,110.254921 
	C90.445152,110.265228 97.238541,110.257874 104.311462,110.257874 
	C104.311462,119.438179 104.311462,128.196121 104.311462,137.861008 
	C91.669235,136.937820 78.833519,139.959106 66.402725,135.647308 
	C51.884373,130.611420 42.790947,115.339584 45.275875,100.980141 
	C47.957581,85.483589 61.147808,74.073097 77.209137,73.899536 
	C97.201355,73.683495 117.197624,73.842407 137.651810,73.841820 
z"/>
<path fill="#FCFCFC" opacity="1.000000" stroke="none" 
	d="
M163.008057,138.154922 
	C158.370056,138.154922 154.230743,138.154922 150.074493,138.154922 
	C151.010529,123.339310 162.147171,112.465569 176.444946,112.245888 
	C186.441803,112.092278 196.443497,112.152138 206.441818,112.245667 
	C210.044266,112.279366 212.818512,111.482460 213.053391,107.298210 
	C213.304459,102.825592 210.316467,101.495750 206.643295,101.418022 
	C199.668030,101.270401 192.687439,101.375275 185.446808,101.375275 
	C185.446808,92.116631 185.446808,83.217545 185.446808,74.000397 
	C196.111252,74.000397 206.628464,73.253555 216.995544,74.182404 
	C231.136139,75.449348 244.751038,88.998901 244.413727,104.776543 
	C243.976456,125.229515 230.687927,138.532715 210.002350,138.200165 
	C194.507584,137.951035 179.005539,138.153519 163.008057,138.154922 
z"/>
<path fill="#F7F7F7" opacity="1.000000" stroke="none" 
	d="
M152.959564,114.954338 
	C149.732651,119.650772 146.758774,124.094193 143.749863,128.589951 
	C140.145981,117.865242 132.636978,110.260193 120.629799,106.469170 
	C132.577164,102.541985 140.247665,95.046783 144.181885,82.821640 
	C148.074768,95.104164 155.725006,102.498238 166.433868,106.043297 
	C162.129929,108.861755 157.671249,111.781532 152.959564,114.954338 
z"/>
</svg>